PathFileType	4	(X/Y/Z)	C:\Users\xlb\Desktop\20210112\20210112\bx_n_10_502.trc
DataRate	CameraRate	NumFrames	NumMarkers	Units	OrigDataRate	OrigDataStartFrame	OrigNumFrames
50.00	50.00	       8	43	mm	50.00	296	       473
Frame#	Time	Top.Head			R.Acromium			L.Acromium			Sternum			R.ASIS			L.ASIS			V.Sacral			R.Thigh.Upper			R.Thigh.Front			R.Thigh.Rear			R.Knee.Lat			R.Knee.Med			R.Shank.Upper			R.Shank.Front			R.Shank.Rear			R.Ankle.Lat			R.Midfoot.Lat			R.Toe.Lat			R.Toe.Tip			R.Toe.Med			R.Ankle.Med			R.Midfoot.Sup			R.Heel			L.Thigh.Upper			L.Thigh.Front			L.Thigh.Rear			L.Knee.Lat			L.Knee.Med			L.Shank.Upper			L.Shank.Front			L.Shank.Rear			L.Ankle.Lat			L.Midfoot.Lat			L.Toe.Lat			L.Toe.Tip			L.Toe.Med			L.Ankle.Med			L.Midfoot.Sup			L.Heel			origin1 front left			origin2 front right			origin 3 back right			origin 4 back leftt			
		X1	Y1	Z1	X2	Y2	Z2	X3	Y3	Z3	X4	Y4	Z4	X5	Y5	Z5	X6	Y6	Z6	X7	Y7	Z7	X8	Y8	Z8	X9	Y9	Z9	X10	Y10	Z10	X11	Y11	Z11	X12	Y12	Z12	X13	Y13	Z13	X14	Y14	Z14	X15	Y15	Z15	X16	Y16	Z16	X17	Y17	Z17	X18	Y18	Z18	X19	Y19	Z19	X20	Y20	Z20	X21	Y21	Z21	X22	Y22	Z22	X23	Y23	Z23	X24	Y24	Z24	X25	Y25	Z25	X26	Y26	Z26	X27	Y27	Z27	X28	Y28	Z28	X29	Y29	Z29	X30	Y30	Z30	X31	Y31	Z31	X32	Y32	Z32	X33	Y33	Z33	X34	Y34	Z34	X35	Y35	Z35	X36	Y36	Z36	X37	Y37	Z37	X38	Y38	Z38	X39	Y39	Z39	X40	Y40	Z40	X41	Y41	Z41	X42	Y42	Z42	X43	Y43	Z43	

296	5.900	-296.82129	93.24525	1644.87476	-501.62149	-73.95733	1420.01929	-500.31958	267.72205	1423.91650	-548.48236	93.49327	1218.00964	-720.62463	-7.69803	1030.46204	-727.48248	239.08351	1049.61792	-914.61304	91.49862	1080.52258	-791.74475	-74.80501	871.04468	-704.82654	-10.85727	809.89392	-795.24133	-64.39529	754.29034	-789.35254	-39.68136	613.49268	-767.06702	69.82490	572.04974	-788.73151	-36.85393	565.13281	-729.44525	12.06435	526.41693	-816.65002	-50.53220	478.98532	-763.27966	-22.85379	203.94057	-649.81445	-70.73994	159.60896	-607.36047	-77.68161	156.03296	-550.47461	-28.50321	163.27031	-598.72394	24.42279	168.33890	-723.41638	65.00290	219.79518	-673.01715	50.58619	162.78262	-793.62604	36.73967	172.65010	-815.63910	283.20956	871.06573	-706.29224	214.58710	820.05853	-802.82770	274.85413	738.43097	-814.35034	253.98955	634.58954	-766.78351	146.05858	574.64496	-804.25909	249.95334	569.62762	-743.72900	207.92079	538.00134	-830.05157	262.60172	491.04523	-772.05566	230.47395	202.32169	-661.00397	298.95331	156.40771	-624.25641	307.78247	157.96608	-557.89301	256.18585	163.97911	-593.48383	220.17395	174.24632	-718.48950	157.42336	221.22179	-675.93768	175.06834	161.98698	-797.84460	181.50571	181.53154	-527.97797	303.95422	146.26059	-517.80762	-72.90143	142.88593	-875.83997	-78.67164	141.09425	-882.61737	296.04276	144.66600	
297	5.920	-290.63885	93.72130	1636.45142	-496.35291	-73.47981	1413.39502	-495.85538	267.88174	1417.14001	-547.92206	93.64381	1212.39294	-723.21655	-7.64724	1029.47351	-729.72766	239.06223	1048.73987	-916.24731	91.44306	1080.75537	-794.41724	-74.29921	870.34949	-707.12225	-10.84826	809.88879	-797.49866	-64.32240	753.83929	-790.85620	-39.70403	613.30426	-768.48560	69.90511	571.80890	-790.09045	-36.74015	564.82446	-730.74945	12.33645	526.40515	-817.61682	-50.49668	478.70575	-763.28595	-22.87003	203.88449	-649.73889	-70.71906	159.67253	-607.34448	-77.66471	156.06175	-550.39362	-28.46361	163.20766	-598.63141	24.46519	168.34207	-723.59351	64.94868	219.76939	-673.00415	50.59044	162.71262	-793.66553	36.78134	172.67162	-818.09949	283.31476	870.80792	-708.78625	214.29300	819.89240	-804.79474	274.99973	738.13409	-816.01080	254.03151	634.21576	-768.41986	146.08397	574.46558	-805.69855	250.01019	569.42511	-745.03784	207.92569	538.01257	-831.20050	262.70370	490.78833	-772.09143	230.52856	202.23416	-660.95410	298.92706	156.45303	-624.21307	307.75598	158.01543	-557.98700	256.25919	164.07106	-593.52582	220.10651	174.20232	-718.61182	157.46614	221.28693	-675.97412	175.10223	161.97719	-797.92316	181.60071	181.50049	-527.97095	303.98550	146.26715	-517.83105	-72.90337	142.86937	-875.85114	-78.68163	141.07646	-882.62152	296.05905	144.65018	
298	5.940	-284.78204	94.17247	1628.05408	-491.24670	-73.07281	1406.74390	-491.46478	268.03610	1410.18835	-547.41760	93.80697	1206.75317	-725.74402	-7.60631	1028.45325	-731.85333	239.02859	1047.84326	-918.02014	91.45601	1081.19226	-797.05792	-73.91007	869.82227	-709.41467	-10.73594	809.90717	-799.51300	-64.34328	753.55377	-792.34375	-39.67175	613.09326	-769.93109	69.92654	571.55542	-791.42981	-36.62430	564.50116	-732.00171	12.57868	526.36334	-818.58545	-50.51034	478.41971	-763.26428	-22.89750	203.80200	-649.63416	-70.68326	159.72307	-607.34460	-77.64820	156.08188	-550.28278	-28.43532	163.18959	-598.57391	24.47800	168.31268	-723.83093	64.83871	219.73006	-673.00897	50.61004	162.67607	-793.71924	36.83619	172.70465	-820.56317	283.46213	870.52264	-711.26044	213.98445	819.71753	-806.77881	275.15796	737.78149	-817.72101	254.11444	633.81921	-770.07489	146.14746	574.31659	-807.14990	250.10159	569.16937	-746.35809	208.04967	538.00983	-832.33478	262.78287	490.46390	-772.15820	230.58734	202.09514	-660.91040	298.90778	156.47939	-624.14954	307.72949	158.02167	-558.08960	256.29578	164.12595	-593.68011	220.09105	174.12186	-718.76654	157.54706	221.38341	-676.01086	175.14023	161.95503	-798.00494	181.68736	181.45935	-527.96674	304.00992	146.27635	-517.84869	-72.90826	142.85089	-875.84656	-78.69796	141.07771	-882.62000	296.06558	144.62109	
299	5.960	-279.23682	94.59203	1619.65112	-486.31631	-72.66746	1400.11597	-487.09100	268.18088	1403.02930	-546.87817	93.94548	1201.00781	-728.21069	-7.52706	1027.36694	-733.98724	239.07335	1046.92004	-920.08276	91.60197	1081.83997	-799.62164	-73.78896	869.51367	-711.74066	-10.56838	809.85486	-801.43756	-64.43176	753.35352	-793.88300	-39.58260	612.84863	-771.50629	69.84693	571.30267	-792.82892	-36.58562	564.20282	-733.21729	12.66654	526.36963	-819.60400	-50.59030	478.12653	-763.22180	-22.93771	203.70270	-649.53247	-70.63430	159.74162	-607.36865	-77.61300	156.07846	-550.19238	-28.42257	163.21114	-598.55701	24.46971	168.27045	-724.09131	64.72983	219.68475	-673.01807	50.62244	162.69531	-793.75275	36.84860	172.73140	-823.02197	283.68915	870.18750	-713.74426	213.76030	819.55383	-808.79602	275.37558	737.36896	-819.45355	254.25157	633.43085	-771.68707	146.25052	574.16943	-808.63049	250.20821	568.86151	-747.72974	208.25865	537.97772	-833.47937	262.86139	490.08041	-772.22534	230.62880	201.93999	-660.87244	298.89505	156.47287	-624.09460	307.71091	157.99956	-558.15582	256.30042	164.14873	-593.87030	220.11049	174.05113	-718.92944	157.64323	221.49893	-676.03375	175.16666	161.93529	-798.07666	181.73824	181.40039	-527.96991	304.02808	146.28403	-517.86658	-72.91399	142.83978	-875.85590	-78.73295	141.09232	-882.60211	296.07031	144.61142	
300	5.980	-273.96884	94.99994	1611.20679	-481.52032	-72.14957	1393.44067	-482.73920	268.30222	1395.62610	-546.31055	94.03948	1195.12842	-730.68787	-7.40579	1026.17358	-736.18140	239.21024	1045.95142	-922.43610	91.89718	1082.58154	-802.12598	-73.91660	869.35547	-714.12823	-10.40241	809.74268	-803.43579	-64.53520	753.14020	-795.51563	-39.44482	612.55750	-773.19031	69.68437	571.07623	-794.31732	-36.60991	563.95093	-734.46973	12.65376	526.40863	-820.65552	-50.68001	477.82269	-763.17316	-22.99421	203.60091	-649.47504	-70.59237	159.74814	-607.39392	-77.56394	156.06581	-550.15350	-28.41749	163.23077	-598.57263	24.46965	168.23271	-724.31805	64.67980	219.63734	-673.01892	50.61787	162.73798	-793.75287	36.80259	172.75006	-825.46405	283.96503	869.77850	-716.24542	213.66423	819.44073	-810.84369	275.71527	736.93414	-821.17725	254.44221	633.05798	-773.25128	146.39650	573.97339	-810.14661	250.28960	568.48944	-749.19177	208.45969	537.88989	-834.67725	262.97647	489.68207	-772.26520	230.65858	201.80130	-660.83490	298.88599	156.44203	-624.06537	307.72180	157.95914	-558.14771	256.28214	164.15985	-594.01111	220.12552	174.02545	-719.06146	157.73170	221.61353	-676.04156	175.17722	161.92494	-798.13171	181.76566	181.32852	-527.98108	304.03662	146.27686	-517.89099	-72.93281	142.84297	-875.88367	-78.78606	141.12111	-882.57825	296.07574	144.62616	
301	6.000	-268.92554	95.43372	1602.69604	-476.76865	-71.43869	1386.55444	-478.49084	268.40445	1388.01001	-545.74249	94.10983	1189.16931	-733.21875	-7.29292	1024.86731	-738.38904	239.35541	1044.89075	-924.98096	92.31198	1083.29407	-804.63623	-74.16039	869.24304	-716.58752	-10.26958	809.65991	-805.57324	-64.59182	752.86475	-797.23907	-39.28252	612.23553	-774.90765	69.50305	570.86517	-795.86511	-36.61087	563.71136	-735.80048	12.63865	526.42224	-821.71521	-50.72638	477.50168	-763.13068	-23.06146	203.50610	-649.46570	-70.56990	159.76949	-607.39844	-77.51966	156.06424	-550.16913	-28.40148	163.22711	-598.60999	24.49355	168.20041	-724.48541	64.69214	219.58496	-673.01752	50.61351	162.75652	-793.72864	36.70896	172.75888	-827.88660	284.24039	869.31708	-718.72919	213.70074	819.36053	-812.92090	276.18777	736.49670	-822.90546	254.67491	632.67822	-774.80402	146.58429	573.70667	-811.68390	250.36295	568.04510	-750.71216	208.60522	537.75708	-835.95020	263.14105	489.30066	-772.28821	230.69485	201.67691	-660.80591	298.87695	156.41006	-624.05902	307.77374	157.89967	-558.07788	256.24869	164.17470	-594.07977	220.12604	174.03860	-719.15228	157.81975	221.71628	-676.05908	175.19334	161.91362	-798.18024	181.80843	181.25731	-527.99048	304.03198	146.26103	-517.91431	-72.96277	142.86189	-875.90991	-78.82692	141.14749	-882.56439	296.06677	144.63951	
302	6.020	-264.05930	95.91747	1594.11194	-471.96967	-70.54710	1379.31909	-474.38904	268.54169	1380.29797	-545.12634	94.20764	1183.20471	-735.78961	-7.23799	1023.47516	-740.54993	239.35875	1043.62891	-927.58478	92.79408	1083.90906	-807.20868	-74.38066	869.09698	-719.09491	-10.15193	809.62756	-807.81873	-64.56490	752.52539	-799.01178	-39.10611	611.89874	-776.62347	69.39967	570.59192	-797.43250	-36.53354	563.42303	-737.20801	12.67388	526.36932	-822.79657	-50.73105	477.15350	-763.10211	-23.12048	203.43146	-649.46808	-70.55309	159.79982	-607.39209	-77.47694	156.07732	-550.22131	-28.36727	163.21251	-598.66217	24.53320	168.16164	-724.62909	64.73878	219.51826	-673.02411	50.62282	162.73772	-793.70190	36.59774	172.75359	-830.31287	284.50711	868.86530	-721.17572	213.85608	819.20575	-815.04041	276.71350	736.04175	-824.67694	254.92378	632.27380	-776.37177	146.78876	573.41498	-813.23120	250.49339	567.58240	-752.21283	208.71423	537.61786	-837.27588	263.33865	488.91687	-772.32758	230.73734	201.55560	-660.80945	298.86887	156.38885	-624.06824	307.85703	157.82127	-558.01233	256.21317	164.18892	-594.11182	220.13591	174.05817	-719.24280	157.92970	221.81477	-676.11072	175.23473	161.89412	-798.24152	181.89857	181.18642	-527.98743	304.01666	146.26584	-517.92010	-72.99413	142.89952	-875.91638	-78.82408	141.14917	-882.56879	296.04053	144.63667	
303	6.040	-259.33478	96.45700	1585.44788	-467.09488	-69.55914	1371.73486	-470.39258	268.76443	1372.58105	-544.33942	94.37361	1177.28870	-738.36517	-7.22040	1022.02393	-742.66541	239.02402	1042.01697	-930.11401	93.28481	1084.40417	-809.86261	-74.48045	868.85706	-721.61047	-9.99961	809.54865	-810.11243	-64.48500	752.14801	-800.79266	-38.90896	611.55151	-778.35345	69.45735	570.16986	-799.00043	-36.41049	563.08887	-738.67657	12.77809	526.25476	-823.92847	-50.73342	476.78125	-763.08118	-23.16106	203.38020	-649.45148	-70.52431	159.82169	-607.39032	-77.41993	156.10254	-550.28235	-28.32538	163.19885	-598.72809	24.57907	168.10652	-724.80664	64.79688	219.43889	-673.03882	50.63747	162.70934	-793.69080	36.50593	172.73520	-832.76819	284.79260	868.47528	-723.60779	214.07687	818.88495	-817.19543	277.20535	735.57562	-826.47809	255.16508	631.85547	-777.93494	146.95654	573.18073	-814.78473	250.68915	567.18597	-753.64343	208.82207	537.48712	-838.60620	263.53418	488.49240	-772.39246	230.76662	201.44772	-660.85651	298.86551	156.36932	-624.08972	307.94678	157.73389	-558.01337	256.18552	164.18759	-594.15491	220.16513	174.06503	-719.38208	158.06068	221.91840	-676.18536	175.28638	161.88022	-798.32227	182.02547	181.10612	-527.97858	303.99759	146.29797	-517.90253	-73.01945	142.94498	-875.90179	-78.78235	141.12497	-882.58936	296.02316	144.63092	
